<svg width="63" height="63" viewBox="0 0 63 63" fill="none" xmlns="http://www.w3.org/2000/svg">
<circle cx="31" cy="30" r="27" fill="#E37A39"/>
<path d="M31.5 15.75C32.5873 15.75 33.4688 16.6314 33.4688 17.7188V29.5312H45.2812C46.3686 29.5312 47.25 30.4127 47.25 31.5C47.25 32.5873 46.3686 33.4688 45.2812 33.4688H33.4688V45.2812C33.4688 46.3686 32.5873 47.25 31.5 47.25C30.4127 47.25 29.5312 46.3686 29.5312 45.2812V33.4688H17.7188C16.6314 33.4688 15.75 32.5873 15.75 31.5C15.75 30.4127 16.6314 29.5312 17.7188 29.5312H29.5312V17.7188C29.5312 16.6314 30.4127 15.75 31.5 15.75Z" fill="white"/>
</svg>
